# xmcd CD database file
#
# Track frame offsets:
#	150
#	26606
#	46491
#	74235
#	104322
#	131411
#	150045
#	174195
#
# Disc length: 2682 seconds
#
# Revision: 0
# Processed by: cddbd v1.5.2PL0 Copyright (c) Steve Scherf et al.
# Submitted via: CDex 1.51
#
DISCID=5f0a7808
DTITLE=Timo Lassy - The Soul and Jazz of Timo lassy
DYEAR=2007
DGENRE=Jazz
TTITLE0=Early Move
TTITLE1=Live at the Timber Yard
TTITLE2=The Call
TTITLE3=Universal Four
TTITLE4=Weldon
TTITLE5=Sweet Spot
TTITLE6=Love Moan
TTITLE7=African Rumble
EXTD=YEAR: 2007
EXTT0=
EXTT1=
EXTT2=
EXTT3=
EXTT4=
EXTT5=
EXTT6=
EXTT7=
PLAYORDER=
